<?xml version="1.0" encoding="utf-8"?>
<!-- Generator: Adobe Illustrator 25.3.1, SVG Export Plug-In . SVG Version: 6.00 Build 0)  -->
<svg version="1.1" id="Layer_1" xmlns="http://www.w3.org/2000/svg" xmlns:xlink="http://www.w3.org/1999/xlink" x="0px" y="0px"
	 viewBox="0 0 125 51" style="enable-background:new 0 0 125 51;" xml:space="preserve">
<style type="text/css">
	.st0{fill-rule:evenodd;clip-rule:evenodd;fill:#78ABD5;}
	.st1{fill-rule:evenodd;clip-rule:evenodd;fill:#00628B;}
	.st2{fill-rule:evenodd;clip-rule:evenodd;}
</style>
<g>
	<g>
		<path class="st0" d="M33.67,17.67c-2.21,0.8-4.49,1.62-6.86,2.48c-2.44,0.91-4.99,1.85-7.65,2.85c1.32-1.46,2.55-2.82,3.71-4.12
			c-0.59-0.21-1.21-0.34-1.85-0.43c-2.41-0.39-5.13,0-7.15,1.14l0,0l0,0c-1.59,0.91-2.55,2.14-2.76,3.44
			c-0.23,1.37,0.36,2.82,1.89,3.99l0,0l0,0c1.07,0.82,2.41,1.37,3.87,1.64c2.98,0.57,6.29,0,8.45-1.64l0,0l0,0
			c1-0.75,1.62-1.66,1.85-2.62c0.02-0.11,0.05-0.27,0.07-0.43c0.07-0.59,0-1.18-0.25-1.75c1.46-0.41,2.87-0.8,4.26-1.21
			c0.75,1.12,1.14,2.35,1.12,3.58c0,0.23-0.02,0.48-0.05,0.75c-0.23,1.62-1.12,3.19-2.69,4.53l0,0l0,0
			c-1.69,1.46-3.96,2.46-6.52,2.98c-2.57,0.52-5.33,0.52-7.91,0c-2.55-0.52-4.83-1.53-6.54-2.98l0,0l0,0
			c-2.39-2.05-3.12-4.53-2.53-6.81c0.55-2.07,2.21-3.96,4.81-5.33l0,0l0,0c1.62-0.84,3.49-1.39,5.35-1.66c1.87-0.27,3.83-0.27,5.7,0
			c0.96,0.14,1.91,0.34,2.85,0.64c0.71-0.8,1.41-1.57,2.07-2.3c1.23,0.36,2.41,0.82,3.58,1.37C31.66,16.33,32.73,16.97,33.67,17.67
			L33.67,17.67z"/>
		<path class="st1" d="M11.41,14.39c0.39,0.43,0.8,0.89,1.23,1.37c-1.03,0.3-2,0.68-2.96,1.16c-0.93,0.48-1.8,1.05-2.55,1.64
			c-0.82-0.3-1.64-0.59-2.46-0.89c0.93-0.71,2-1.34,3.17-1.91C9,15.21,10.18,14.76,11.41,14.39L11.41,14.39z M31.14,36.61
			c-0.93-1.07-1.82-2.1-2.69-3.1c1.25-0.62,2.39-1.37,3.33-2.23c0.93-0.84,1.64-1.73,2.12-2.67c1.25,0.5,2.55,1,3.85,1.5
			c-0.55,1.21-1.34,2.39-2.46,3.51C34.12,34.78,32.73,35.76,31.14,36.61L31.14,36.61z M0.59,30.11c1.3-0.5,2.57-1,3.83-1.5
			c0.5,0.93,1.18,1.82,2.12,2.67c0.96,0.87,2.1,1.62,3.35,2.23c-0.87,0.98-1.78,2.03-2.71,3.1c-1.57-0.84-2.96-1.85-4.12-2.98
			C1.93,32.51,1.14,31.32,0.59,30.11L0.59,30.11z"/>
	</g>
	<g>
		<polygon class="st2" points="46.75,22.09 44.15,29 43.1,29 40.53,22.09 41.78,22.09 43.67,27.43 45.54,22.09 46.75,22.09 		"/>
		<path class="st2" d="M48.82,29h-1.18v-6.9h1.18V29L48.82,29z M48.89,20.93h-1.32v-1.18h1.32V20.93L48.89,20.93z"/>
		<path class="st2" d="M52.37,29.18c-0.46,0-0.89-0.07-1.3-0.21c-0.39-0.11-0.73-0.25-0.98-0.39v-1.3h0.05
			c0.11,0.07,0.23,0.16,0.36,0.25c0.14,0.09,0.3,0.21,0.52,0.3c0.21,0.09,0.41,0.18,0.66,0.25c0.23,0.07,0.48,0.09,0.73,0.09
			c0.18,0,0.39-0.02,0.59-0.07c0.21-0.02,0.36-0.09,0.48-0.16c0.14-0.09,0.25-0.18,0.32-0.3c0.05-0.11,0.09-0.27,0.09-0.48
			c0-0.27-0.09-0.48-0.23-0.64c-0.16-0.14-0.41-0.25-0.8-0.34c-0.16-0.05-0.34-0.09-0.59-0.14c-0.23-0.05-0.46-0.09-0.66-0.16
			c-0.52-0.14-0.91-0.39-1.14-0.71c-0.25-0.32-0.36-0.71-0.36-1.16c0-0.62,0.23-1.12,0.71-1.5c0.48-0.41,1.09-0.59,1.87-0.59
			c0.39,0,0.77,0.05,1.16,0.14c0.39,0.09,0.71,0.21,0.98,0.36v1.23h-0.07c-0.3-0.23-0.64-0.41-1-0.55
			c-0.34-0.14-0.73-0.21-1.09-0.21c-0.39,0-0.71,0.07-0.96,0.25c-0.27,0.16-0.41,0.39-0.41,0.73c0,0.27,0.09,0.5,0.23,0.64
			c0.16,0.14,0.41,0.25,0.75,0.34c0.18,0.05,0.39,0.09,0.59,0.14c0.21,0.05,0.43,0.09,0.66,0.16c0.52,0.11,0.91,0.34,1.16,0.64
			c0.25,0.3,0.39,0.68,0.39,1.21c0,0.3-0.07,0.57-0.18,0.84c-0.11,0.25-0.3,0.48-0.52,0.68c-0.23,0.21-0.52,0.36-0.82,0.46
			C53.24,29.11,52.85,29.18,52.37,29.18L52.37,29.18z"/>
		<path class="st2" d="M61.53,29h-1.16v-0.75c-0.34,0.3-0.68,0.55-1,0.71c-0.34,0.16-0.68,0.25-1.09,0.25
			c-0.3,0-0.57-0.07-0.84-0.16c-0.27-0.09-0.5-0.25-0.68-0.48c-0.21-0.21-0.36-0.48-0.48-0.8c-0.09-0.32-0.16-0.73-0.16-1.18v-4.49
			h1.16v3.94c0,0.36,0.02,0.66,0.05,0.91c0.02,0.23,0.09,0.46,0.18,0.64c0.09,0.16,0.23,0.3,0.39,0.39
			c0.16,0.07,0.39,0.11,0.71,0.11c0.27,0,0.57-0.07,0.91-0.23c0.32-0.18,0.62-0.36,0.87-0.62v-5.15h1.16V29L61.53,29z"/>
		<path class="st2" d="M67.07,27.31v-1.94c-0.27,0.05-0.62,0.07-1.05,0.11c-0.41,0.05-0.75,0.09-1,0.18
			c-0.32,0.09-0.57,0.23-0.77,0.43s-0.3,0.48-0.3,0.82c0,0.39,0.09,0.71,0.32,0.89c0.23,0.21,0.55,0.32,0.98,0.32
			c0.36,0,0.71-0.09,1-0.25C66.54,27.72,66.82,27.54,67.07,27.31L67.07,27.31z M67.07,28.27c-0.09,0.07-0.21,0.16-0.36,0.3
			c-0.16,0.11-0.32,0.23-0.48,0.3c-0.21,0.11-0.39,0.18-0.59,0.25c-0.18,0.05-0.46,0.09-0.8,0.09c-0.3,0-0.55-0.07-0.82-0.16
			c-0.25-0.11-0.48-0.27-0.66-0.46c-0.18-0.21-0.34-0.43-0.46-0.71c-0.11-0.27-0.16-0.57-0.16-0.89c0-0.48,0.09-0.89,0.3-1.21
			c0.21-0.34,0.52-0.62,0.96-0.8c0.39-0.18,0.84-0.32,1.39-0.39c0.52-0.07,1.09-0.11,1.69-0.14v-0.23c0-0.27-0.05-0.5-0.11-0.66
			c-0.09-0.16-0.21-0.3-0.34-0.39c-0.16-0.09-0.34-0.16-0.55-0.18c-0.23-0.05-0.43-0.05-0.66-0.05c-0.27,0-0.59,0.05-0.96,0.11
			c-0.34,0.09-0.71,0.21-1.07,0.34h-0.07v-1.16c0.21-0.07,0.52-0.14,0.91-0.21c0.41-0.09,0.8-0.11,1.18-0.11
			c0.48,0,0.89,0.02,1.21,0.11c0.32,0.07,0.62,0.21,0.87,0.39c0.25,0.21,0.46,0.43,0.57,0.75c0.11,0.3,0.18,0.66,0.18,1.09V29h-1.16
			V28.27L67.07,28.27z"/>
		<polygon class="st2" points="71.05,29 69.89,29 69.89,19.38 71.05,19.38 71.05,29 		"/>
		<path class="st2" d="M76.16,29.18c-0.59,0-1.12-0.07-1.57-0.21c-0.48-0.14-0.89-0.36-1.25-0.66c-0.34-0.32-0.62-0.68-0.8-1.14
			c-0.21-0.46-0.3-1-0.3-1.62c0-0.66,0.09-1.23,0.32-1.69c0.21-0.48,0.48-0.84,0.84-1.16c0.34-0.27,0.75-0.5,1.23-0.64
			c0.46-0.14,0.96-0.21,1.46-0.21c0.39,0,0.75,0.05,1.14,0.14c0.39,0.09,0.77,0.23,1.16,0.43v1.85h-0.27
			c-0.09-0.09-0.21-0.18-0.32-0.27c-0.14-0.09-0.27-0.18-0.41-0.27c-0.16-0.09-0.34-0.16-0.52-0.23c-0.21-0.05-0.43-0.09-0.68-0.09
			c-0.55,0-0.98,0.21-1.28,0.59c-0.3,0.39-0.46,0.89-0.46,1.55c0,0.71,0.16,1.23,0.5,1.57c0.32,0.34,0.75,0.5,1.28,0.5
			c0.27,0,0.52-0.02,0.73-0.09c0.21-0.07,0.36-0.14,0.52-0.23c0.14-0.09,0.27-0.18,0.36-0.27c0.11-0.09,0.21-0.16,0.27-0.25h0.27
			v1.87c-0.11,0.05-0.27,0.11-0.43,0.18c-0.16,0.07-0.32,0.14-0.5,0.16c-0.21,0.07-0.41,0.11-0.59,0.14
			C76.68,29.18,76.45,29.18,76.16,29.18L76.16,29.18z"/>
		<path class="st2" d="M84.08,24.1H83.9c-0.09-0.02-0.21-0.05-0.36-0.07c-0.16,0-0.32-0.02-0.52-0.02c-0.23,0-0.46,0.05-0.71,0.11
			c-0.25,0.07-0.5,0.14-0.73,0.23V29h-2.16v-6.93h2.16v0.98c0.09-0.09,0.23-0.21,0.41-0.34c0.18-0.14,0.34-0.25,0.48-0.32
			c0.16-0.11,0.34-0.18,0.55-0.25c0.21-0.07,0.41-0.11,0.59-0.11c0.07,0,0.16,0.02,0.23,0.02c0.09,0,0.18,0,0.25,0.02V24.1
			L84.08,24.1z"/>
		<path class="st2" d="M91.56,25.53c0,1.14-0.3,2.05-0.93,2.69c-0.62,0.66-1.5,1-2.64,1s-2-0.34-2.64-1
			c-0.62-0.64-0.93-1.55-0.93-2.69c0-1.16,0.3-2.05,0.93-2.71c0.64-0.66,1.5-0.98,2.64-0.98s2.03,0.32,2.64,0.98
			C91.26,23.48,91.56,24.4,91.56,25.53L91.56,25.53z M89.35,25.56c0-0.43-0.02-0.77-0.09-1.05c-0.07-0.27-0.18-0.48-0.3-0.66
			c-0.11-0.16-0.27-0.27-0.43-0.34c-0.16-0.07-0.34-0.11-0.55-0.11c-0.18,0-0.36,0.02-0.52,0.09c-0.16,0.07-0.3,0.18-0.43,0.34
			c-0.11,0.16-0.23,0.39-0.3,0.66c-0.07,0.27-0.11,0.64-0.11,1.07c0,0.41,0.05,0.75,0.11,1.03c0.07,0.25,0.16,0.46,0.27,0.62
			c0.11,0.16,0.25,0.3,0.43,0.36c0.16,0.07,0.36,0.11,0.57,0.11c0.16,0,0.34-0.05,0.52-0.11c0.18-0.07,0.32-0.18,0.43-0.34
			c0.14-0.18,0.23-0.39,0.3-0.64C89.32,26.33,89.35,25.99,89.35,25.56L89.35,25.56z"/>
		<path class="st2" d="M94.84,29.2c-0.52,0-1-0.07-1.46-0.18s-0.82-0.23-1.12-0.39v-1.82h0.16c0.11,0.07,0.23,0.16,0.36,0.25
			c0.14,0.09,0.32,0.21,0.55,0.3c0.21,0.11,0.43,0.18,0.68,0.25c0.25,0.07,0.52,0.11,0.82,0.11c0.32,0,0.57-0.07,0.82-0.16
			c0.23-0.09,0.34-0.25,0.34-0.43c0-0.18-0.05-0.3-0.16-0.39c-0.11-0.07-0.32-0.16-0.64-0.23c-0.16-0.05-0.36-0.09-0.62-0.14
			c-0.25-0.05-0.48-0.09-0.66-0.16c-0.55-0.16-0.96-0.41-1.23-0.75c-0.27-0.32-0.41-0.77-0.41-1.3c0-0.32,0.07-0.62,0.21-0.89
			c0.14-0.27,0.36-0.5,0.64-0.73c0.27-0.21,0.62-0.36,1.03-0.5c0.39-0.11,0.87-0.18,1.37-0.18c0.48,0,0.93,0.05,1.34,0.16
			c0.41,0.09,0.75,0.2,1.03,0.34v1.75h-0.16c-0.09-0.07-0.21-0.14-0.36-0.23c-0.16-0.11-0.32-0.18-0.48-0.25
			c-0.16-0.09-0.36-0.16-0.59-0.21c-0.23-0.07-0.46-0.09-0.68-0.09c-0.32,0-0.59,0.07-0.8,0.16c-0.23,0.11-0.34,0.25-0.34,0.43
			c0,0.16,0.07,0.27,0.18,0.36c0.09,0.09,0.32,0.18,0.68,0.27c0.18,0.05,0.41,0.09,0.64,0.14c0.25,0.05,0.48,0.09,0.71,0.18
			c0.5,0.16,0.87,0.39,1.12,0.71c0.27,0.3,0.39,0.71,0.39,1.23c0,0.32-0.07,0.64-0.23,0.93c-0.14,0.3-0.36,0.55-0.64,0.75
			c-0.3,0.21-0.64,0.36-1.05,0.5C95.86,29.13,95.38,29.2,94.84,29.2L94.84,29.2z"/>
		<path class="st2" d="M101.35,29.2c-0.52,0-1-0.07-1.46-0.18c-0.46-0.11-0.84-0.23-1.14-0.39v-1.82h0.18
			c0.11,0.07,0.23,0.16,0.36,0.25c0.14,0.09,0.32,0.21,0.55,0.3c0.21,0.11,0.43,0.18,0.68,0.25c0.25,0.07,0.52,0.11,0.82,0.11
			c0.3,0,0.57-0.07,0.82-0.16c0.23-0.09,0.34-0.25,0.34-0.43c0-0.18-0.07-0.3-0.16-0.39c-0.11-0.07-0.32-0.16-0.64-0.23
			c-0.16-0.05-0.36-0.09-0.62-0.14c-0.25-0.05-0.48-0.09-0.66-0.16c-0.55-0.16-0.96-0.41-1.23-0.75c-0.27-0.32-0.41-0.77-0.41-1.3
			c0-0.32,0.07-0.62,0.21-0.89c0.14-0.27,0.36-0.5,0.64-0.73c0.27-0.21,0.62-0.36,1.03-0.5c0.39-0.11,0.84-0.18,1.37-0.18
			c0.48,0,0.93,0.05,1.34,0.16c0.41,0.09,0.75,0.2,1.03,0.34v1.75h-0.18c-0.07-0.07-0.18-0.14-0.34-0.23
			c-0.16-0.11-0.32-0.18-0.48-0.25c-0.18-0.09-0.36-0.16-0.59-0.21c-0.23-0.07-0.46-0.09-0.71-0.09c-0.3,0-0.57,0.07-0.77,0.16
			c-0.23,0.11-0.34,0.25-0.34,0.43c0,0.16,0.07,0.27,0.16,0.36c0.11,0.09,0.34,0.18,0.71,0.27c0.18,0.05,0.41,0.09,0.64,0.14
			c0.25,0.05,0.48,0.09,0.71,0.18c0.5,0.16,0.87,0.39,1.12,0.71c0.27,0.3,0.39,0.71,0.39,1.23c0,0.32-0.07,0.64-0.23,0.93
			c-0.14,0.3-0.36,0.55-0.64,0.75c-0.3,0.21-0.66,0.36-1.05,0.5C102.38,29.13,101.9,29.2,101.35,29.2L101.35,29.2z"/>
		<path class="st2" d="M107.91,29h-2.16v-6.93h2.16V29L107.91,29z M107.96,21.07h-2.28v-1.69h2.28V21.07L107.96,21.07z"/>
		<path class="st2" d="M116.07,29h-2.19v-3.44c0-0.27,0-0.55-0.02-0.84c-0.02-0.27-0.07-0.48-0.14-0.62
			c-0.07-0.14-0.18-0.25-0.32-0.32c-0.14-0.07-0.32-0.11-0.57-0.11c-0.16,0-0.34,0.05-0.52,0.09c-0.18,0.07-0.39,0.18-0.59,0.32V29
			h-2.16v-6.93h2.16v0.75c0.36-0.3,0.71-0.52,1.05-0.71c0.32-0.16,0.71-0.25,1.12-0.25c0.71,0,1.25,0.23,1.62,0.68
			c0.39,0.43,0.57,1.09,0.57,1.94V29L116.07,29z"/>
		<path class="st2" d="M121.81,26.81v-3.14c-0.11-0.05-0.23-0.09-0.39-0.11c-0.16-0.05-0.32-0.05-0.48-0.05
			c-0.52,0-0.91,0.16-1.16,0.5c-0.27,0.32-0.41,0.8-0.41,1.39c0,0.3,0.02,0.57,0.07,0.77c0.05,0.21,0.11,0.39,0.23,0.55
			c0.09,0.16,0.23,0.27,0.39,0.36c0.18,0.07,0.39,0.11,0.64,0.11c0.21,0,0.39-0.05,0.59-0.09
			C121.47,27.04,121.65,26.95,121.81,26.81L121.81,26.81z M123.97,28.2c0,0.64-0.09,1.18-0.27,1.64c-0.18,0.46-0.46,0.8-0.77,1.05
			c-0.32,0.25-0.71,0.46-1.14,0.55c-0.46,0.11-0.96,0.18-1.5,0.18c-0.46,0-0.89-0.02-1.32-0.09c-0.41-0.07-0.77-0.14-1.07-0.21
			v-1.73h0.25c0.11,0.02,0.23,0.07,0.39,0.14c0.14,0.05,0.3,0.09,0.43,0.14c0.18,0.05,0.36,0.07,0.52,0.11
			c0.16,0.02,0.34,0.02,0.52,0.02c0.36,0,0.66-0.02,0.91-0.11c0.25-0.07,0.43-0.18,0.55-0.32c0.14-0.14,0.23-0.32,0.27-0.5
			c0.05-0.21,0.07-0.46,0.07-0.75V28.2c-0.25,0.21-0.52,0.39-0.84,0.5c-0.32,0.14-0.64,0.21-0.98,0.21c-0.91,0-1.59-0.3-2.1-0.89
			c-0.48-0.57-0.73-1.46-0.73-2.67c0-0.55,0.09-1.03,0.23-1.46c0.16-0.43,0.36-0.8,0.64-1.12c0.25-0.3,0.57-0.5,0.91-0.66
			c0.36-0.16,0.75-0.25,1.14-0.25c0.36,0,0.68,0.05,0.96,0.14c0.27,0.09,0.52,0.21,0.75,0.36l0.09-0.3h2.1V28.2L123.97,28.2z"/>
	</g>
</g>
</svg>
